<svg xmlns="http://www.w3.org/2000/svg" viewBox="0 0 32 32" fill-rule="evenodd" stroke-linejoin="round" stroke-miterlimit="2" xmlns:v="https://vecta.io/nano"><path d="M30 2h-1a3 3 0 0 0-3 3v16a3 3 0 0 0 3 3h1V2zm-6 28v-1a3 3 0 0 0-3-3H5a3 3 0 0 0-3 3v1h22zm6 0v-4h-1a3 3 0 0 0-3 3v1h4z" fill="#bfbfbf"/><path d="M24 5a3 3 0 0 0-3-3H5a3 3 0 0 0-3 3v16a3 3 0 0 0 3 3h16a3 3 0 0 0 3-3V5z" fill="#333"/><path d="M9.67 18.574H7.45V9.371H5.153V7.663l4.517-.398v11.309zm3.952-4.916l.641-6.232h6.195v1.792h-4.372l-.305 2.603c.208-.153.47-.28.786-.379a3.72 3.72 0 0 1 1.03-.165c1.032-.015 1.832.305 2.399.961s.851 1.576.851 2.76c0 1.093-.308 1.989-.923 2.688s-1.557 1.049-2.823 1.049c-1.023 0-1.897-.272-2.625-.816s-1.078-1.29-1.053-2.239l.016-.038 2.144-.1c0 .465.139.827.419 1.087s.646.391 1.099.391c.529 0 .914-.174 1.156-.521s.362-.842.362-1.485-.132-1.155-.397-1.535-.656-.571-1.175-.571c-.427 0-.754.079-.98.237a1.29 1.29 0 0 0-.484.644l-1.961-.131z" fill="#fff" fill-rule="nonzero"/></svg>